<svg id="Capa_1" enable-background="new 0 0 512 512" height="512" viewBox="0 0 512 512" width="512" xmlns="http://www.w3.org/2000/svg"><path d="m381.25 178c0-19.74-12.782-36.54-30.5-42.589v-7.911c0-30.403-21.144-55.961-49.5-62.739v-19.761c0-24.813-20.187-45-45-45s-45 20.187-45 45v19.53c-28.857 6.411-50.5 32.21-50.5 62.97v8.252c-17.199 6.33-29.5 22.879-29.5 42.248 0 12.627 5.235 24.049 13.64 32.229-8.783 9.75-14.14 22.646-14.14 36.771v210c0 30.327 24.673 55 55 55h140c30.327 0 55-24.673 55-55v-210c0-13.878-5.177-26.561-13.688-36.249 8.725-8.212 14.188-19.852 14.188-32.751zm-30.5 279c0 13.785-11.215 25-25 25h-140c-13.785 0-25-11.215-25-25v-30h39.5c8.284 0 15-6.716 15-15s-6.716-15-15-15h-39.5v-30h69.5c8.284 0 15-6.716 15-15s-6.716-15-15-15h-69.5v-30h39.5c8.284 0 15-6.716 15-15s-6.716-15-15-15h-39.5v-30c0-11.361 7.62-20.97 18.016-24h153.968c10.396 3.03 18.016 12.639 18.016 24zm-125.5-364h1c8.284 0 15-6.716 15-15v-33c0-8.271 6.729-15 15-15s15 6.729 15 15v33c0 8.284 6.716 15 15 15 19.023 0 34.5 15.477 34.5 34.5v5.5h-130v-5.5c0-19.023 15.477-34.5 34.5-34.5zm-49 70h160c8.271 0 15 6.729 15 15s-6.729 15-15 15h-160c-8.271 0-15-6.729-15-15s6.729-15 15-15z"/></svg>