<?xml version="1.0" encoding="iso-8859-1"?>
<!-- Generator: Adobe Illustrator 19.0.0, SVG Export Plug-In . SVG Version: 6.00 Build 0)  -->
<svg version="1.1" id="Capa_1" xmlns="http://www.w3.org/2000/svg" xmlns:xlink="http://www.w3.org/1999/xlink" x="0px" y="0px"
	 viewBox="0 0 512 512" style="enable-background:new 0 0 512 512;" xml:space="preserve">
<g>
	<g>
		<path d="M508.111,211.546c-2.84-16.102-12.659-29.774-26.524-37.653c5.556-14.947,4.29-31.733-3.885-45.893
			c-8.175-14.161-22.077-23.649-37.801-26.311c0.108-15.946-6.821-31.286-19.347-41.797c-12.526-10.51-28.833-14.67-44.521-11.795
			c-5.352-15.02-17.112-27.066-32.476-32.658c-15.363-5.593-32.113-3.923-45.87,4.143C287.52,7.297,272.349,0,256,0
			s-31.52,7.297-41.687,19.581c-13.755-8.065-30.504-9.734-45.87-4.142c-15.364,5.593-27.123,17.637-32.476,32.658
			c-15.687-2.876-31.996,1.287-44.52,11.795c-12.525,10.51-19.456,25.851-19.348,41.797C56.377,104.352,42.472,113.84,34.297,128
			c-8.175,14.16-9.44,30.945-3.885,45.893c-13.863,7.879-23.683,21.551-26.523,37.654C1.05,227.648,5.601,243.855,15.935,256
			C5.601,268.145,1.05,284.352,3.889,300.453c2.84,16.102,12.659,29.774,26.523,37.654c-5.555,14.947-4.29,31.733,3.885,45.893
			c8.175,14.161,22.078,23.649,37.801,26.311c-0.107,15.946,6.822,31.286,19.348,41.797c12.525,10.51,28.833,14.67,44.52,11.795
			c5.352,15.021,17.112,27.066,32.476,32.659c15.364,5.592,32.114,3.923,45.87-4.143C224.48,504.703,239.649,512,256,512
			s31.52-7.297,41.687-19.581c13.757,8.066,30.505,9.735,45.87,4.143s27.124-17.637,32.476-32.659
			c15.685,2.873,31.996-1.286,44.521-11.796c12.526-10.51,19.456-25.85,19.347-41.796c15.722-2.662,29.626-12.151,37.801-26.311
			c8.176-14.16,9.441-30.945,3.885-45.893c13.863-7.879,23.684-21.551,26.524-37.654c2.839-16.101-1.714-32.307-12.045-44.452
			C506.397,243.855,510.95,227.648,508.111,211.546z M488.718,297.034c-2.229,12.637-11.22,22.924-23.462,26.846
			c-2.9,0.929-5.207,3.148-6.248,6.009c-1.043,2.862-0.701,6.045,0.924,8.62c6.858,10.874,7.133,24.533,0.717,35.645
			c-6.417,11.112-18.401,17.693-31.228,17.202c-3.037-0.126-5.97,1.177-7.927,3.509c-1.957,2.334-2.726,5.44-2.08,8.417
			c2.725,12.564-1.688,25.493-11.517,33.741c-9.829,8.247-23.328,10.349-35.229,5.483c-2.817-1.152-6.01-0.935-8.649,0.587
			c-2.638,1.522-4.421,4.18-4.832,7.198c-1.737,12.739-10.306,23.379-22.364,27.767c-12.059,4.387-25.46,1.746-34.979-6.896
			c-2.253-2.046-5.327-2.936-8.328-2.406c-2.999,0.529-5.585,2.415-7.003,5.11c-5.989,11.375-17.681,18.443-30.512,18.443
			c-12.831,0-24.523-7.068-30.511-18.444c-1.418-2.695-4.003-4.581-7.003-5.11c-0.569-0.1-1.141-0.15-1.709-0.15
			c-2.427,0-4.792,0.898-6.619,2.557c-9.518,8.642-22.919,11.284-34.979,6.895c-8.298-3.02-14.943-9.002-18.848-16.591h20.899
			c5.438,0,9.846-4.408,9.846-9.846c0-5.438-4.408-9.846-9.846-9.846h-34.172c-0.081,0-0.159,0.01-0.239,0.012
			c-0.152,0.004-0.302,0.012-0.454,0.023c-0.215,0.015-0.426,0.036-0.636,0.065c-0.133,0.019-0.266,0.037-0.398,0.061
			c-0.24,0.042-0.476,0.096-0.71,0.156c-0.103,0.027-0.208,0.05-0.31,0.08c-0.295,0.086-0.585,0.186-0.868,0.298
			c-0.036,0.014-0.074,0.023-0.11,0.037c-11.899,4.866-25.398,2.765-35.229-5.483c-9.829-8.247-14.242-21.176-11.517-33.741
			c0.645-2.976-0.123-6.083-2.08-8.415c-1.957-2.333-4.888-3.641-7.927-3.509c-12.871,0.497-24.813-6.09-31.229-17.202
			s-6.141-24.771,0.718-35.645c1.625-2.576,1.965-5.758,0.924-8.62c-1.042-2.861-3.349-5.08-6.248-6.009
			c-12.244-3.922-21.233-14.208-23.461-26.845c-2.228-12.637,2.702-25.378,12.865-33.25c2.407-1.865,3.816-4.739,3.816-7.784
			s-1.409-5.919-3.816-7.784c-10.163-7.873-15.093-20.614-12.865-33.25c2.228-12.637,11.219-22.923,23.461-26.845
			c2.9-0.929,5.207-3.148,6.248-6.009c1.042-2.862,0.7-6.045-0.924-8.62c-6.858-10.874-7.134-24.533-0.718-35.645
			s18.372-17.703,31.229-17.202c3.049,0.133,5.97-1.177,7.927-3.509c1.957-2.332,2.725-5.44,2.08-8.416
			c-2.725-12.565,1.688-25.493,11.517-33.741c9.828-8.247,23.328-10.35,35.229-5.483c2.819,1.152,6.011,0.936,8.649-0.587
			c2.638-1.522,4.422-4.18,4.832-7.198c1.737-12.739,10.305-23.378,22.363-27.766c12.059-4.39,25.461-1.747,34.979,6.895
			c2.255,2.047,5.327,2.935,8.328,2.407c2.999-0.529,5.585-2.415,7.003-5.11c5.99-11.377,17.682-18.445,30.513-18.445
			c12.832,0,24.523,7.068,30.511,18.444c1.418,2.695,4.003,4.581,7.003,5.11c3.001,0.531,6.075-0.36,8.328-2.406
			c9.519-8.643,22.921-11.285,34.979-6.895c8.298,3.021,14.944,9.002,18.848,16.591h-20.899c-5.437,0-9.846,4.408-9.846,9.846
			c0,5.438,4.409,9.846,9.846,9.846h34.172c0.086,0,0.169-0.011,0.254-0.013c0.141-0.004,0.281-0.012,0.42-0.022
			c0.227-0.016,0.451-0.038,0.673-0.069c0.122-0.017,0.244-0.034,0.366-0.056c0.251-0.044,0.496-0.099,0.74-0.162
			c0.096-0.025,0.192-0.046,0.286-0.074c0.297-0.087,0.589-0.187,0.873-0.299c0.036-0.015,0.075-0.023,0.111-0.038
			c11.901-4.866,25.398-2.765,35.229,5.483c9.829,8.248,14.242,21.177,11.517,33.741c-0.646,2.976,0.122,6.083,2.08,8.417
			c1.956,2.333,4.865,3.627,7.927,3.509c12.851-0.51,24.812,6.09,31.228,17.202c6.417,11.112,6.141,24.77-0.717,35.645
			c-1.625,2.576-1.966,5.758-0.924,8.62c1.042,2.861,3.348,5.08,6.248,6.009c12.244,3.922,21.233,14.208,23.461,26.845
			c2.228,12.637-2.702,25.378-12.865,33.25c-2.407,1.865-3.816,4.739-3.816,7.784c0,3.045,1.409,5.919,3.816,7.784
			C486.015,271.657,490.945,284.398,488.718,297.034z"/>
	</g>
</g>
<g>
	<g>
		<path d="M256,226.462c-16.287,0-29.538,13.251-29.538,29.538s13.251,29.538,29.538,29.538s29.538-13.251,29.538-29.538
			S272.287,226.462,256,226.462z M256,265.846c-5.429,0-9.846-4.417-9.846-9.846s4.417-9.846,9.846-9.846
			c5.429,0,9.846,4.417,9.846,9.846C265.846,261.429,261.429,265.846,256,265.846z"/>
	</g>
</g>
<g>
	<g>
		<path d="M384,226.462c-16.287,0-29.538,13.251-29.538,29.538s13.251,29.538,29.538,29.538s29.538-13.251,29.538-29.538
			S400.287,226.462,384,226.462z M384,265.846c-5.429,0-9.846-4.417-9.846-9.846s4.417-9.846,9.846-9.846s9.846,4.417,9.846,9.846
			C393.846,261.429,389.429,265.846,384,265.846z"/>
	</g>
</g>
<g>
	<g>
		<path d="M324.923,128c-16.288,0-29.538,13.251-29.538,29.538c0,16.288,13.251,29.538,29.538,29.538s29.538-13.251,29.538-29.538
			S341.21,128,324.923,128z M324.923,167.385c-5.429,0-9.846-4.417-9.846-9.846c0-5.429,4.417-9.846,9.846-9.846
			c5.429,0,9.846,4.417,9.846,9.846S330.352,167.385,324.923,167.385z"/>
	</g>
</g>
<g>
	<g>
		<path d="M187.077,128c-16.287,0-29.538,13.251-29.538,29.538c0,16.288,13.251,29.538,29.538,29.538
			c16.288,0,29.538-13.251,29.538-29.538S203.364,128,187.077,128z M187.077,167.385c-5.429,0-9.846-4.417-9.846-9.846
			c0-5.429,4.417-9.846,9.846-9.846c5.429,0,9.846,4.417,9.846,9.846C196.923,162.968,192.506,167.385,187.077,167.385z"/>
	</g>
</g>
<g>
	<g>
		<path d="M324.923,324.923c-16.288,0-29.538,13.251-29.538,29.538s13.251,29.538,29.538,29.538s29.538-13.251,29.538-29.538
			S341.21,324.923,324.923,324.923z M324.923,364.308c-5.429,0-9.846-4.417-9.846-9.846c0-5.429,4.417-9.846,9.846-9.846
			c5.429,0,9.846,4.417,9.846,9.846S330.352,364.308,324.923,364.308z"/>
	</g>
</g>
<g>
	<g>
		<path d="M187.077,324.923c-16.287,0-29.538,13.251-29.538,29.538s13.251,29.538,29.538,29.538
			c16.288,0,29.538-13.251,29.538-29.538S203.364,324.923,187.077,324.923z M187.077,364.308c-5.429,0-9.846-4.417-9.846-9.846
			c0-5.429,4.417-9.846,9.846-9.846c5.429,0,9.846,4.417,9.846,9.846C196.923,359.891,192.506,364.308,187.077,364.308z"/>
	</g>
</g>
<g>
	<g>
		<path d="M128,226.462c-16.288,0-29.538,13.251-29.538,29.538s13.251,29.538,29.538,29.538s29.538-13.251,29.538-29.538
			S144.287,226.462,128,226.462z M128,265.846c-5.429,0-9.846-4.417-9.846-9.846s4.417-9.846,9.846-9.846
			c5.429,0,9.846,4.417,9.846,9.846C137.846,261.429,133.429,265.846,128,265.846z"/>
	</g>
</g>
<g>
	<g>
		<path d="M213.73,445.962c-1.831-1.831-4.372-2.885-6.961-2.885c-2.589,0-5.13,1.054-6.961,2.885s-2.885,4.372-2.885,6.961
			s1.054,5.13,2.885,6.961s4.372,2.885,6.961,2.885c2.589,0,5.13-1.054,6.961-2.885c1.831-1.831,2.885-4.372,2.885-6.961
			S215.562,447.793,213.73,445.962z"/>
	</g>
</g>
<g>
	<g>
		<path d="M312.191,53.415c-1.83-1.831-4.371-2.885-6.96-2.885s-5.13,1.054-6.961,2.885c-1.831,1.841-2.885,4.372-2.885,6.961
			s1.053,5.13,2.885,6.971c1.831,1.831,4.372,2.875,6.961,2.875s5.13-1.044,6.96-2.875c1.831-1.841,2.886-4.372,2.886-6.971
			C315.077,57.787,314.023,55.257,312.191,53.415z"/>
	</g>
</g>
<g>
</g>
<g>
</g>
<g>
</g>
<g>
</g>
<g>
</g>
<g>
</g>
<g>
</g>
<g>
</g>
<g>
</g>
<g>
</g>
<g>
</g>
<g>
</g>
<g>
</g>
<g>
</g>
<g>
</g>
</svg>
