<svg height="503.60656pt" viewBox="0 0 503.60656 503.60656" width="503.60656pt" xmlns="http://www.w3.org/2000/svg"><path d="m251.804688 0c-139.070313 0-251.804688 112.734375-251.804688 251.804688 0 139.066406 112.734375 251.800781 251.804688 251.800781 139.066406 0 251.800781-112.734375 251.800781-251.800781-.15625-139.003907-112.800781-251.648438-251.800781-251.804688zm0 486.820312c-129.796876 0-235.019532-105.222656-235.019532-235.015624 0-129.796876 105.222656-235.019532 235.019532-235.019532 129.792968 0 235.015624 105.222656 235.015624 235.019532-.144531 129.734374-105.28125 234.871093-235.015624 235.015624zm0 0"/><path d="m266.257812 34.085938-.320312-.695313c-2.496094-5.574219-8.03125-9.15625-14.136719-9.15625s-11.644531 3.582031-14.140625 9.15625l-.386718.835937c-46.515626 2.898438-90.828126 20.820313-126.277344 51.074219-.101563.078125-.136719.195313-.226563.277344-.09375.085937-.203125.109375-.285156.195313-.269531.339843-.511719.703124-.722656 1.082031-.355469.4375-.667969.910156-.933594 1.410156-.195313.492187-.339844 1.003906-.433594 1.527344-.148437.511719-.25 1.039062-.304687 1.570312.003906.527344.0625 1.054688.175781 1.570313.046875.535156.148437 1.066406.304687 1.585937.214844.5.476563.976563.789063 1.425781.179687.410157.398437.808594.644531 1.183594.085938.09375.195313.117188.277344.210938.085938.089844.109375.207031.203125.300781l49.519531 49.523437c-.8125 8.066407-.65625 16.199219.460938 24.230469l-61.960938-61.960937c-.074218-.074219-.183594-.101563-.257812-.175782-.078125-.074218-.109375-.175781-.195313-.253906-.382812-.257812-.785156-.484375-1.207031-.679687-.445312-.324219-.917969-.605469-1.417969-.835938-.546875-.164062-1.109375-.273437-1.679687-.320312-.46875-.074219-.945313-.109375-1.417969-.101563-.570313.046875-1.132813.15625-1.679687.328125-.484376.082031-.957032.210938-1.417969.386719-.519531.269531-1.011719.59375-1.460938.972656-.378906.207032-.742187.445313-1.082031.714844-.074219.074219-.101562.183594-.175781.257812-.074219.078126-.175781.109376-.253907.203126-74.078124 86.5-69.105468 215.441406 11.417969 295.976562 80.523438 80.539062 209.464844 85.53125 295.976563 11.464844.085937-.066406.117187-.175782.203125-.25.082031-.074219.175781-.09375.25-.167969.277343-.347656.523437-.71875.738281-1.109375.359375-.441406.675781-.914062.941406-1.417969.1875-.492187.324219-1.003906.410156-1.527343.15625-.511719.261719-1.035157.3125-1.570313-.015624-.53125-.082031-1.0625-.195312-1.585937-.046875-.53125-.148438-1.058594-.300781-1.570313-.234375-.511719-.515625-1-.839844-1.460937-.1875-.40625-.410156-.800782-.664063-1.171876-.074218-.085937-.175781-.117187-.242187-.195312-.066406-.074219-.101563-.183594-.175781-.257812l-51.101563-51.144532c1.164063-7.589844 1.445313-15.289062.839844-22.945312l62.214844 62.203125c.082031.082031.199219.109375.292969.191406.089843.085937.125.195313.21875.277344.480468.355469.996093.652343 1.542968.890625.265625.191406.546875.363281.839844.511718.949219.382813 1.964844.582032 2.988281.589844 1.136719-.011718 2.265625-.253906 3.304688-.714844.335937-.191406.652343-.40625.957031-.636718.605469-.296875 1.167969-.671875 1.679688-1.109375.09375-.09375.117187-.210938.203124-.300781.082032-.09375.191407-.109376.265626-.203126 53.230468-62.84375 66.523437-150.308593 34.371093-226.128906-32.15625-75.816406-104.273437-127.0625-186.449219-132.480468zm14.511719 90.203124c0 1.386719-.195312 2.738282-.292969 4.105469-11.078124 6.746094-20.425781 15.988281-27.289062 26.992188-.527344.898437-.90625 1.839843-1.382812 2.746093-.488282-.914062-.839844-1.855468-1.394532-2.761718-6.867187-11-16.210937-20.242188-27.289062-26.984375-.105469-1.378907-.285156-2.804688-.285156-4.097657 0-12.992187 10.796874-43.359374 28.96875-81.523437 18.160156 38.140625 28.964843 68.53125 28.964843 81.523437zm38.726563 247.070313c-10.328125 14.808594-25.144532 25.902344-42.261719 31.644531-3.460937 1.414063-7.371094 1.199219-10.660156-.582031-2.695313-1.457031-4.578125-4.066406-5.117188-7.082031-.523437-2.929688-.933593-6.167969-1.234375-9.542969.402344-5.308594.402344-10.640625 0-15.949219.65625-8.535156 3.191406-16.816406 7.425782-24.257812 12.910156-21.820313 41.800781-32.179688 55.222656-35.957032 3.632812 12.683594 9.265625 40.382813-3.375 61.726563zm-67.828125 63.789063-9.574219-16.785157c1.078125-.359375 2.132812-.785156 3.164062-1.269531 2.445313-1.429688 4.65625-3.230469 6.546876-5.34375 1.890624 2.113281 4.097656 3.914062 6.546874 5.34375.839844.472656 1.777344.679688 2.652344 1.066406zm-70.941407-307.113282c13.429688 3.765625 42.296876 14.109375 55.230469 35.914063 4.179688 7.359375 6.703125 15.539062 7.402344 23.972656-.433594 5.496094-.433594 11.019531 0 16.515625-.292969 3.265625-.695313 6.40625-1.199219 9.234375-.542968 3.042969-2.433594 5.671875-5.144531 7.152344-3.132813 1.726562-6.859375 2.003906-10.207031.753906l-.539063-.21875c-7.609375-5.199219-15.773437-9.542969-24.339843-12.949219-7.164063-4.902344-13.222657-11.246094-17.792969-18.625-12.660157-21.421875-7.035157-49.101562-3.410157-61.777344zm77.632813 107.433594c.679687.378906 1.425781.539062 2.121094.839844-2.71875 3.085937-5.160157 6.410156-7.292969 9.929687-.527344.90625-.90625 1.839844-1.382812 2.753907-.480469-.914063-.839844-1.847657-1.386719-2.746094-2.128907-3.523438-4.570313-6.847656-7.292969-9.9375.695312-.320313 1.441406-.476563 2.121094-.839844 2.457031-1.4375 4.667968-3.257812 6.558594-5.386719 1.890624 2.113281 4.101562 3.921875 6.554687 5.355469zm50.660156-11.941406c4.546875-1.808594 9.179688-3.378906 13.882813-4.710938 3.667968 12.65625 9.285156 40.289063-3.449219 61.757813-4.566406 7.425781-10.664063 13.789062-17.886719 18.667969-8.527344 3.417968-16.660156 7.742187-24.265625 12.902343-3.484375 1.40625-7.421875 1.183594-10.726562-.613281-2.683594-1.460938-4.566407-4.058594-5.117188-7.066406-.503906-2.839844-.90625-5.976563-1.210937-9.234375.441406-5.492188.441406-11.015625 0-16.507813.699218-8.441406 3.226562-16.625 7.402344-23.988281 4.707031-7.605469 10.980468-14.113281 18.410156-19.089844 7.136718-4.957031 14.847656-9.035156 22.960937-12.152343zm-55.796875 113.511718c-.546875.914063-.925781 1.871094-1.417968 2.804688-.496094-.933594-.839844-1.890625-1.417969-2.804688-2.132813-3.53125-4.574219-6.871093-7.296875-9.972656.722656-.328125 1.503906-.484375 2.207031-.878906 2.429687-1.421875 4.625-3.210938 6.507813-5.304688 1.878906 2.09375 4.074218 3.886719 6.503906 5.3125.703125.386719 1.484375.554688 2.207031.878907-2.71875 3.101562-5.160156 6.4375-7.292969 9.964843zm-51.199218-37.828124c-7.234376-4.886719-13.34375-11.257813-17.914063-18.695313-12.65625-21.335937-7.058594-49.042969-3.40625-61.722656 1.820313.511719 3.925781 1.148437 6.226563 1.914062 2.359374.789063 4.925781 1.675781 7.640624 2.785157 8.128907 3.125 15.851563 7.222656 22.996094 12.203124 7.410156 4.96875 13.667969 11.464844 18.355469 19.054688 4.179687 7.359375 6.707031 15.542969 7.402344 23.980469-.429688 5.492187-.429688 11.015625 0 16.507812-.292969 3.265625-.695313 6.398438-1.199219 9.234375-.542969 3.015625-2.425781 5.625-5.121094 7.09375-3.128906 1.742188-6.859375 2.050782-10.230468.835938l-.511719-.207032c-7.582031-5.183593-15.703125-9.535156-24.214844-12.984374zm-21.304688 10.414062c13.429688 3.777344 42.3125 14.152344 55.222656 35.957031 4.25 7.441407 6.800782 15.730469 7.46875 24.273438-.402344 5.308593-.402344 10.640625 0 15.949219-.300781 3.355468-.714844 6.613281-1.234375 9.535156-.539062 3.019531-2.421875 5.632812-5.121093 7.09375-3.285157 1.78125-7.199219 1.992187-10.660157.578125-17.113281-5.742188-31.929687-16.835938-42.257812-31.644531-12.667969-21.351563-7.035157-49.050782-3.417969-61.742188zm138.742188-119.859375c-4.566407 7.378906-10.628907 13.722656-17.792969 18.617187-8.566407 3.402344-16.730469 7.742188-24.339844 12.945313h-.085937c-3.457032 1.425781-7.375 1.222656-10.667969-.554687-2.707031-1.480469-4.601563-4.105469-5.144531-7.144532-.503907-2.835937-.90625-5.964844-1.207032-9.230468.4375-5.5.4375-11.023438 0-16.519532.691406-8.429687 3.214844-16.605468 7.394532-23.953125 5.957031-9.324219 14.113281-17.039062 23.746093-22.480469.992188-.382812 1.898438-.953124 2.675781-1.675781 9.117188-5.042969 18.785157-9.007812 28.816407-11.820312 3.648437 12.734375 9.273437 40.414062-3.394531 61.816406zm-190.394532-97.253906c28.941406-22.617188 63.609375-36.734375 100.117188-40.773438-10.597656 21.433594-18.21875 44.214844-22.664063 67.707031-9.535156-4.28125-19.5-7.53125-29.726562-9.683593-3.929688-.738281-7.835938 1.394531-9.335938 5.101562-1.519531 3.972657-2.800781 8.03125-3.84375 12.15625zm-78.707031 159.28125c.066406-44.90625 15.199219-88.488281 42.976563-123.777344l75.4375 75.449219c-.566407.648437-1.027344 1.382812-1.367188 2.175781-.769531 1.929687-18.859375 47.789063 2.277344 83.414063.601562 1.03125 1.359375 2.003906 2.03125 3.019531-1.953125.867187-3.496094 2.445312-4.316406 4.414062-.773438 1.941407-18.851563 47.769531 2.265624 83.425781 12.222657 18.0625 29.988282 31.660157 50.621094 38.734376 1.042969.367187 2.105469.671874 3.183594.914062l19.101562 33.441406c-107.488281-5.054687-192.078124-93.601562-192.210937-201.210937zm325.222656 158.476562c-32.792969 25.769531-72.816406 40.644531-114.480469 42.546875l18.132813-32.992187c1.386719-.300781 2.75-.691407 4.085937-1.175781 20.628907-7.074219 38.398438-20.667969 50.621094-38.726563 1.417969-2.421875 2.679688-4.925781 3.785156-7.503906zm35.570313-35.671875-73.214844-73.207031c-.90625-2.785156-1.59375-4.554687-1.730469-4.902344-.816406-1.972656-2.363281-3.554687-4.3125-4.421875.660157-1 1.410157-1.964844 2.011719-2.988281 21.152344-35.648437 3.066406-81.507813 2.292969-83.4375-.816407-1.953125-2.34375-3.523437-4.273438-4.398437.65625-.984376 1.394531-1.929688 1.980469-2.9375 21.152344-35.722657 3.066406-81.511719 2.285156-83.441407-1.5-3.707031-5.40625-5.839843-9.332031-5.101562-10.230469 2.152343-20.195313 5.402343-29.730469 9.683593-4.46875-23.535156-12.125-46.351562-22.753906-67.816406 72.285156 8.023438 134.605469 54.457032 162.972656 121.425782 28.367188 66.96875 18.363282 144.039062-26.160156 201.542968zm0 0"/></svg>