<svg id="Line_Expand" height="512" viewBox="0 0 64 64" width="512" xmlns="http://www.w3.org/2000/svg" data-name="Line Expand"><path d="m60.707 42.322-4.95-4.949a.993.993 0 0 0 -.388-.244l-4.018-1.34-23.142-23.137-1.341-4.019a1 1 0 0 0 -.244-.387l-4.949-4.95a1 1 0 0 0 -1.685.504l-.577 2.883-2.883.577a1 1 0 0 0 -.784.784l-.575 2.88-2.882.577a1 1 0 0 0 -.784.784l-.577 2.882-2.879.575a1 1 0 0 0 -.785.784l-.577 2.883-2.887.581a1 1 0 0 0 -.511 1.688l4.95 4.949a.992.992 0 0 0 .387.245l4.018 1.339 23.139 23.14 1.341 4.018a.993.993 0 0 0 .244.388l4.949 4.95a1 1 0 0 0 1.693-.507l.577-2.883 2.883-.577a1 1 0 0 0 .784-.785l.575-2.879 2.882-.577a1 1 0 0 0 .784-.784l.577-2.882 2.879-.575a1 1 0 0 0 .785-.784l.577-2.883 2.887-.581a1 1 0 0 0 .511-1.688zm-52.975-21.079a1 1 0 0 0 .785-.784l.577-2.882 2.879-.577a1 1 0 0 0 .785-.784l.577-2.883 2.883-.577a1 1 0 0 0 .782-.782l.575-2.88 2.882-.577a1 1 0 0 0 .784-.785l.342-1.7 2.923 2.918-15.556 15.556-2.922-2.922zm6.168 5.384a1 1 0 0 0 -.39-.241l-2.707-.9 14.68-14.686.9 2.708a1 1 0 0 0 .241.39l23.476 23.475a1 1 0 0 0 .39.241l2.707.9-14.68 14.686-.9-2.708a1 1 0 0 0 -.241-.39zm42.369 16.13a1 1 0 0 0 -.785.784l-.577 2.882-2.88.577a1 1 0 0 0 -.785.784l-.577 2.883-2.883.577a1 1 0 0 0 -.784.785l-.575 2.879-2.882.577a1 1 0 0 0 -.784.785l-.341 1.7-2.922-2.92 15.556-15.556 2.922 2.922z"/><path d="m39.494 46.15a.993.993 0 0 0 .707-.293l5.656-5.657a1 1 0 0 0 0-1.414l-20.644-20.644a1.029 1.029 0 0 0 -1.414 0l-5.656 5.658a1 1 0 0 0 0 1.414l20.644 20.643a.993.993 0 0 0 .707.293zm-14.988-25.887 19.23 19.231-4.242 4.242-19.23-19.23z"/></svg>