<?xml version="1.0"?>
<svg xmlns="http://www.w3.org/2000/svg" id="Outline" viewBox="0 0 512 512" width="512" height="512"><path d="M448,264a32,32,0,1,0-32,32A32.036,32.036,0,0,0,448,264Zm-48,0a16,16,0,1,1,16,16A16.019,16.019,0,0,1,400,264Z"/><path d="M448,56a48,48,0,1,0,48,48A48.055,48.055,0,0,0,448,56Zm0,80a32,32,0,1,1,32-32A32.036,32.036,0,0,1,448,136Z"/><path d="M336,216a40,40,0,1,0-40-40A40.045,40.045,0,0,0,336,216Zm0-64a24,24,0,1,1-24,24A24.028,24.028,0,0,1,336,152Z"/><path d="M224,232H128a8,8,0,0,0-8,8v48a8,8,0,0,0,8,8h96a8,8,0,0,0,8-8V240A8,8,0,0,0,224,232Zm-8,48H136V248h80Z"/><path d="M488,440H429.185A71.962,71.962,0,0,0,384,312c-8.08,0-15.84,1.744-24.056,3.591C350.3,317.758,340.324,320,328,320s-22.3-2.242-31.944-4.409C287.84,313.744,280.08,312,272,312V192a40.045,40.045,0,0,0-40-40h-8V128a8,8,0,0,0-8-8H200V72h32V96a8,8,0,0,0,8,8h32a8,8,0,0,0,8-8V64a40.045,40.045,0,0,0-40-40H144a24.027,24.027,0,0,0-24,24V64a8,8,0,0,0,8,8h24v48H136a8,8,0,0,0-8,8v24h-8a40.045,40.045,0,0,0-40,40V416a39.788,39.788,0,0,0,8.022,24H24a8,8,0,0,0-8,8,40.045,40.045,0,0,0,40,40H456a40.045,40.045,0,0,0,40-40A8,8,0,0,0,488,440ZM292.548,331.2C302.556,333.451,313.9,336,328,336s25.444-2.549,35.452-4.8C371.1,329.483,377.7,328,384,328a56,56,0,0,1,0,112H272a56,56,0,0,1,0-112C278.3,328,284.9,329.483,292.548,331.2ZM200,384a72.383,72.383,0,0,0,.455,8H96V216H256v97.814A72.11,72.11,0,0,0,200,384ZM136,48a8.009,8.009,0,0,1,8-8h96a24.027,24.027,0,0,1,24,24V88H248V64a8,8,0,0,0-8-8H136Zm32,24h16v48H168Zm-24,64h64v16H144Zm-24,32H232a24.027,24.027,0,0,1,24,24v8H96v-8A24.027,24.027,0,0,1,120,168ZM96,416v-8H204.128a72.269,72.269,0,0,0,22.687,32H120A24.027,24.027,0,0,1,96,416Zm360,56H56a24.042,24.042,0,0,1-22.629-16H478.629A24.042,24.042,0,0,1,456,472Z"/><path d="M264,352a8,8,0,0,0,8,8c6.3,0,12.9,1.483,20.548,3.2C302.556,365.451,313.9,368,328,368s25.444-2.549,35.452-4.8C371.1,361.483,377.7,360,384,360a8,8,0,0,0,0-16c-8.08,0-15.84,1.744-24.056,3.591C350.3,349.758,340.324,352,328,352s-22.3-2.242-31.944-4.409C287.84,345.744,280.08,344,272,344A8,8,0,0,0,264,352Z"/></svg>
