<svg height="512pt" viewBox="-112 0 512 512" width="512pt" xmlns="http://www.w3.org/2000/svg"><path d="m287.5625 228.445312c0-4.148437-3.367188-7.515624-7.515625-7.515624s-7.515625 3.367187-7.515625 7.515624v55.515626c-54.886719 7.339843-87.691406 25.671874-119.445312 43.429687-34.800782 19.460937-70.757813 39.550781-138.054688 46.640625v-105.117188c71.347656-7.238281 108.972656-28.277343 145.390625-48.644531 31.488281-17.609375 61.335937-34.285156 112.109375-41.375v13.980469c0 4.152344 3.367188 7.515625 7.515625 7.515625s7.515625-3.363281 7.515625-7.515625v-129.25c0-.144531-.015625-.28125-.023438-.421875-.003906-.082031-.003906-.167969-.011718-.25-.027344-.296875-.066406-.589844-.125-.875-.003906-.003906-.003906-.007813-.003906-.011719-.058594-.285156-.140626-.5625-.234376-.835937-.019531-.066407-.046874-.128907-.066406-.1875-.085937-.226563-.175781-.449219-.28125-.664063-.015625-.039062-.027344-.078125-.046875-.113281l-15.238281-30.476563v-22.273437c0-4.152344-3.367188-7.515625-7.515625-7.515625h-240.46875c-4.152344 0-7.515625 3.363281-7.515625 7.515625v22.273437l-15.238281 30.476563c-.019531.035156-.03125.074219-.046875.113281-.105469.214844-.199219.4375-.28125.664063-.023438.058593-.046875.121093-.066406.1875-.09375.273437-.171876.550781-.234376.835937 0 .003906 0 .007813-.003906.011719-.058594.285156-.097656.578125-.1249998.875-.0078124.082031-.0078124.167969-.0117187.25-.0117187.140625-.0234375.277344-.0234375.421875v408.796875c0 21.824219 17.753906 39.578125 39.578125 39.578125h208.40625c21.824219 0 39.578125-17.753906 39.578125-39.578125zm-127.140625 112.0625c31.488281-17.613281 61.335937-34.289062 112.109375-41.375v149.742188h-257.5v-59.726562c71.347656-7.238282 108.972656-28.277344 145.390625-48.640626zm-7.335937-133.351562c-34.800782 19.460938-70.757813 39.550781-138.054688 46.636719v-182.652344h257.5v92.585937c-54.886719 7.335938-87.691406 25.671876-119.445312 43.429688zm-124.894532-168.078125h231.179688l8.515625 17.03125h-248.214844zm2.871094-24.046875h225.4375v9.015625h-225.4375zm241.46875 457.390625c0 13.535156-11.011719 24.546875-24.546875 24.546875h-208.40625c-13.535156 0-24.546875-11.011719-24.546875-24.546875v-8.515625h257.5zm0 0"/><path d="m71.640625 152.296875c-17.402344 0-31.5625 14.160156-31.5625 31.5625s14.160156 31.5625 31.5625 31.5625 31.5625-14.160156 31.5625-31.5625-14.160156-31.5625-31.5625-31.5625zm0 48.09375c-9.117187 0-16.53125-7.414063-16.53125-16.53125s7.414063-16.53125 16.53125-16.53125c9.113281 0 16.53125 7.414063 16.53125 16.53125s-7.417969 16.53125-16.53125 16.53125zm0 0"/><path d="m143.78125 120.234375c-12.984375 0-23.546875 10.5625-23.546875 23.546875s10.5625 23.546875 23.546875 23.546875 23.546875-10.5625 23.546875-23.546875-10.5625-23.546875-23.546875-23.546875zm0 32.0625c-4.695312 0-8.515625-3.820313-8.515625-8.515625s3.820313-8.515625 8.515625-8.515625 8.515625 3.820313 8.515625 8.515625-3.820313 8.515625-8.515625 8.515625zm0 0"/><path d="m71.640625 135.265625c12.984375 0 23.546875-10.5625 23.546875-23.546875s-10.5625-23.546875-23.546875-23.546875-23.546875 10.5625-23.546875 23.546875 10.5625 23.546875 23.546875 23.546875zm0-32.0625c4.695313 0 8.515625 3.820313 8.515625 8.515625s-3.820312 8.515625-8.515625 8.515625-8.515625-3.820313-8.515625-8.515625 3.820312-8.515625 8.515625-8.515625zm0 0"/></svg>