<svg id="Capa_1" enable-background="new 0 0 512 512" height="512" viewBox="0 0 512 512" width="512" xmlns="http://www.w3.org/2000/svg"><g><path d="m486.226 366 15.09-15.09c6.362-6.361 10.338-14.835 10.661-23.826.515-14.34-7.696-26.86-19.73-32.656l8.623-9.538c7.18-7.94 11.14-18.2 11.13-28.89.01-10.69-3.95-20.96-11.13-28.9l-26.73-29.55 8.37-38.96c4.641-21.69-7.849-43.244-28.89-50.05l-37.931-12.23-12.229-37.93c-6.885-21.279-28.631-33.497-50.05-28.89l-38.96 8.37-29.55-26.73c-7.94-7.18-18.456-11.13-28.9-11.13-10.68 0-20.97 3.95-28.89 11.13l-29.56 26.73-38.96-8.37c-21.323-4.611-43.148 7.553-50.05 28.89l-12.23 37.93-37.93 12.23c-21.144 6.839-33.516 28.447-28.89 50.05l8.37 38.96-26.73 29.55c-7.18 7.94-11.14 18.2-11.13 28.9 0 10.571 3.515 18.005 7.049 23.593 2.201 3.481 6.842 4.466 10.312 2.246 3.419-2.188 4.49-6.72 2.356-10.173-2.632-4.257-4.717-8.926-4.717-15.666.01-6.98 2.58-13.67 7.25-18.83l29.31-32.41c1.62-1.78 2.28-4.25 1.77-6.6l-9.18-42.72c-3.023-14.042 4.971-28.167 18.83-32.62l41.59-13.41c2.29-.74 4.1-2.55 4.84-4.84l13.41-41.59c4.438-13.812 18.533-21.862 32.61-18.83l42.72 9.18c2.34.5 4.84-.17 6.61-1.77l32.41-29.31c5.16-4.67 11.85-7.24 18.83-7.25 6.98.01 13.66 2.58 18.83 7.25l32.41 29.31c1.77 1.6 4.26 2.27 6.6 1.77l42.72-9.18c14.07-3.014 28.169 4.988 32.62 18.84l13.41 41.58c.74 2.29 2.55 4.1 4.84 4.84l41.58 13.41c14.036 4.51 21.856 18.818 18.83 32.62l-9.17 42.71c-.51 2.36.149 4.83 1.77 6.61l29.311 32.41c4.67 5.17 7.24 11.85 7.25 18.83-.01 6.97-2.58 13.66-7.25 18.83l-14.63 16.17h-27.792c2.095-11.516 3.171-23.248 3.171-35 0-107.248-87.252-194.5-194.5-194.5s-194.5 87.252-194.5 194.5c0 11.752 1.076 23.484 3.171 35h-29.17c-19.083 0-35.144 15.068-35.495 34.148-.176 9.543 3.459 18.543 10.189 25.272l15.58 15.58-15.115 15.114c-6.603 6.603-10.592 15.486-10.659 24.824-.139 19.309 15.529 35.062 34.807 35.062h69.664l4.069 12.619c6.817 21.138 28.334 33.56 50.045 28.894l38.963-8.371 29.557 26.731c8.237 7.449 18.564 11.127 28.894 11.127 10.28 0 20.659-3.68 28.894-11.128l29.564-26.736 38.955 8.376c21.699 4.664 43.226-7.747 50.046-28.894l4.069-12.618h21.304c4.106 0 7.688-3.164 7.811-7.269.127-4.248-3.277-7.731-7.497-7.731h-394.338c-17.642 0-26.399-21.42-14.006-33.814l20.883-20.883c2.927-2.926 2.929-7.678 0-10.606l-20.883-20.883c-12.384-12.383-3.652-33.814 14.006-33.814h442.385c17.642 0 26.399 21.421 14.006 33.814l-20.688 20.688c-2.765 2.768-3.164 7.831-.033 10.962l20.722 20.722c12.382 12.384 3.65 33.814-14.008 33.814h-17.607c-4.106 0-7.688 3.164-7.811 7.269-.127 4.248 3.277 7.731 7.497 7.731h17.228c19.084 0 35.145-15.07 35.495-34.151.175-9.543-3.459-18.541-10.188-25.27zm-94.458 75-2.584 8.015c-4.443 13.777-18.465 21.876-32.619 18.833l-42.71-9.184c-2.36-.507-4.818.151-6.607 1.77l-32.415 29.313c-10.736 9.71-26.929 9.71-37.665 0l-32.406-29.308c-1.789-1.618-4.25-2.276-6.606-1.77l-42.72 9.178c-14.151 3.041-28.175-5.055-32.618-18.832l-2.585-8.015zm-133.982-150h-13.226c-3.448-16.147-17.786-28.293-34.905-28.293h-8.764c-43.911 0-73.184-42.939-68.367-85.502 1.144-10.096 9.281-18.253 19.35-19.398 35.667-4.057 69.105 15.098 83.702 47.746v21.818c-17.875-23.781-43.06-41.475-71.957-49.985-3.972-1.17-8.143 1.102-9.313 5.076-1.17 3.973 1.102 8.143 5.076 9.313 31.705 9.338 60.073 31.342 76.968 65.601 2.673 5.455 10.45 5.638 13.328.253 21.089-38.448 55.685-66.849 97.421-79.971 3.951-1.243 6.147-5.453 4.904-9.404-1.242-3.952-5.45-6.146-9.404-4.905-37.125 11.673-69.057 34.45-92.022 65.218v-23.316c13.993-39.985 54.427-65.449 96.628-60.653 11.558 1.313 20.898 10.677 22.21 22.265 5.367 47.418-27.253 95.846-76.724 95.846-17.121-.002-31.458 12.144-34.905 28.291zm174.284 0h-158.664c3.003-7.765 10.504-13.293 19.283-13.293 58.525 0 98.006-56.19 91.628-112.533-2.09-18.465-16.986-33.387-35.421-35.482-24.358-2.768-49.091 2.998-69.631 16.239-15.685 10.112-28.441 24.229-36.956 40.668-8.131-12.576-19.172-23.271-32.097-30.916-18.188-10.757-38.945-15.176-60.034-12.781-16.944 1.926-30.638 15.643-32.56 32.615-5.812 51.353 30.215 102.189 83.271 102.189h8.764c8.78 0 16.281 5.528 19.285 13.293h-149.007c-2.271-11.488-3.431-23.233-3.431-35 0-98.977 80.523-179.5 179.5-179.5s179.5 80.524 179.5 179.501c0 11.767-1.159 23.512-3.43 35z"/><path d="m317.745 327.393-27.771 72.917c-1.474 3.871.469 8.204 4.339 9.678 3.864 1.473 8.202-.463 9.678-4.339l5.077-13.33h34.267l5.022 13.308c1.462 3.875 5.788 5.833 9.665 4.369 3.875-1.462 5.832-5.79 4.369-9.665l-27.519-72.92c-2.941-7.824-14.152-7.863-17.127-.018zm-2.964 49.926 11.499-30.193 11.394 30.193z"/><path d="m436.07 321.521c-.024 0-.049 0-.074 0-4.142.04-7.467 3.43-7.427 7.572l.491 50.765-37.955-54.961c-4.162-6.029-13.671-3.08-13.671 4.262v73.821c0 4.142 3.358 7.5 7.5 7.5s7.5-3.358 7.5-7.5v-49.762l36.243 52.481c4.985 7.202 15.584 4.047 15.583-5.285l-.691-71.466c-.041-4.117-3.391-7.427-7.499-7.427z"/><path d="m241.252 336.627c6.865-.559 13.438 1.241 18.888 4.923 3.433 2.319 8.094 1.415 10.413-2.017s1.416-8.095-2.017-10.413c-29.337-19.817-69.353 1.224-69.353 36.879 0 26.405 22.978 46.897 48.804 44.26 20.876-2.132 35.098-19.731 35.098-44.26 0-4.142-3.358-7.5-7.5-7.5h-22.125c-4.142 0-7.5 3.358-7.5 7.5s3.358 7.5 7.5 7.5h13.965c-2.506 13.942-11.445 22.905-25.837 21.898-15.29-1.069-27.406-13.842-27.406-29.398.002-15.441 11.94-28.14 27.07-29.372z"/><path d="m178.171 336.858c4.142 0 7.5-3.358 7.5-7.5s-3.358-7.5-7.5-7.5h-30.879c-4.142 0-7.5 3.358-7.5 7.5v73.283c0 4.142 3.358 7.5 7.5 7.5h30.879c4.142 0 7.5-3.358 7.5-7.5s-3.358-7.5-7.5-7.5h-23.379v-21.641h21.102c4.142 0 7.5-3.358 7.5-7.5s-3.358-7.5-7.5-7.5h-21.102v-21.642z"/><path d="m110.194 326.019-19.141 54.607-18.721-54.476c-1.346-3.917-5.613-6.001-9.53-4.655s-6.001 5.613-4.655 9.53l25.743 74.912c1.038 3.021 3.875 5.053 7.07 5.062h.023c3.185 0 6.024-2.012 7.078-5.019l26.289-75c1.37-3.909-.688-8.188-4.597-9.559-3.911-1.371-8.189.689-9.559 4.598z"/></g></svg>