<?xml version="1.0" encoding="iso-8859-1"?>
<!-- Generator: Adobe Illustrator 19.0.0, SVG Export Plug-In . SVG Version: 6.00 Build 0)  -->
<svg xmlns="http://www.w3.org/2000/svg" xmlns:xlink="http://www.w3.org/1999/xlink" version="1.1" id="Layer_1" x="0px" y="0px" viewBox="0 0 512 512" style="enable-background:new 0 0 512 512;" xml:space="preserve" width="512" height="512">
<g>
	<path d="M175.593,499.735C202.905,506.042,228.702,512,267.206,512c74.336,0,116.937-25.067,169.004-60.479l75.743-51.515   l-8.244-12.366c-20.207-30.31-58.371-40.545-90-27.354c-17.604-47.37-61.279-81.551-112.147-87.394   c2.961-40.66,18.632-79.536,44.319-110.081c28.416,18.483,67.8,16.079,93.805-9.926c29.896-29.896,46.36-70.038,46.36-113.033V0   h-39.853c-42.402,0-82.381,16.627-112.573,46.82c-25.993,25.992-28.762,65.976-9.203,94.912   c-16.371,19.051-29.325,40.967-38.371,64.533c-9.046-23.566-22-45.483-38.371-64.533c8.298-12.276,12.764-26.733,12.764-41.879   c0-20.034-7.801-38.868-21.967-53.033C208.281,16.627,168.302,0,125.9,0H86.047v39.853c0,42.995,16.464,83.137,46.36,113.033   c26.005,26.006,65.388,28.41,93.805,9.926c25.689,30.548,41.36,69.427,44.32,110.09c-34.409,3.958-65.913,20.969-88.137,47.615   c-15.737-9.276-28.927-14.788-42.614-15.649c-22.301-1.408-42.637,10.197-68.26,27.132H0.047v150h15   C98.803,482,139.599,491.422,175.593,499.735z M354.833,68.033C379.359,43.507,411.805,30,446.194,30h9.853v9.853   c0,34.981-13.344,67.59-37.573,91.82c-13.828,13.827-34.485,16.748-51.209,8.782l51.208-51.208L397.26,68.033l-51.209,51.209   C338.085,102.518,341.006,81.86,354.833,68.033z M226.042,119.242l-51.209-51.209l-21.213,21.213l51.209,51.208   c-16.724,7.966-37.381,5.045-51.209-8.782c-24.229-24.229-37.573-56.838-37.573-91.82V30h9.853   c34.389,0,66.834,13.507,91.36,38.033C231.087,81.86,234.009,102.518,226.042,119.242z M286.047,302   c46.622,0,87.791,30.551,101.297,73.865c-10.483,6.26-21.388,11.676-32.52,16.144C343.144,365.161,316.422,347,286.047,347   l-52.853,0.009c-6.765,0-13.338-2.041-19.009-5.884c-2.147-1.455-4.239-2.868-6.288-4.246C227.682,314.819,255.943,302,286.047,302   z M30.047,362h50.542c15.177-9.551,39.502-28.308,57.309-27.191c13.856,0.871,31.708,12.351,59.461,31.153   c10.657,7.22,23.048,11.036,35.834,11.037l52.854-0.009c17.215,0,32.474,9.726,40.019,24.366   c-17.159,4.29-34.389,6.317-50.935,5.843c-22.542-0.646-44.818-4.589-66.212-11.72l-8.128-2.71l-9.487,28.461l8.128,2.709   c27.302,9.101,55.516,13.326,80.371,13.326c45.993-0.001,95.7-16.182,137.257-44.826c16.29-11.228,36.962-9.809,51.34,0.907   l-49.061,33.368C362.015,465.702,328.208,482,267.206,482c-35.085,0-58.152-5.327-84.862-11.496   c-35.336-8.161-75.102-17.346-152.297-18.403V362z"/>
</g>















</svg>
